<svg width="64" height="64" viewBox="0 0 64 64" fill="none" xmlns="http://www.w3.org/2000/svg">
<path d="M40.6552 53H7V28.7303C7.13082 28.7284 7.26175 28.7275 7.39277 28.7275C10.2143 28.7275 12.9919 29.1501 15.6388 29.96C17.0038 30.3777 18.3341 30.8984 19.6177 31.5171C24.5535 33.1681 31.1212 34.5994 35.0165 34.6176C37.7746 34.6688 43.1912 33.687 45.8744 33.0469C45.1819 33.4204 44.5083 33.7636 43.8627 34.0925C40.0635 36.0281 37.2357 37.4688 37.2357 41.6857C37.2357 43.0706 37.6413 45.2423 38.1919 46.5132C39.3494 48.5422 40.1779 50.7316 40.6552 53Z" fill="url(#paint0_radial_9587_23998)"/>
<path opacity="0.8" d="M36.4503 26.3713C30.9529 28.7273 26.893 27.0064 21.9215 24.4079C16.9499 21.8095 12.0388 19.9971 7 20V29.2889C10.0863 29.2889 14.4061 31.1361 17.9397 32.2115C22.2591 33.526 25.6541 35.2733 31.3456 35.7954C32.2711 35.8422 34.6514 35.7954 36.0576 35.7954C41.0612 35.7954 43.0706 34.5675 47.3899 32.2115C49.3533 31.1406 54.9058 27.942 54.9058 27.942L39.199 13.0205C39.199 13.0205 41.9476 24.0153 36.4503 26.3713Z" fill="url(#paint1_linear_9587_23998)"/>
<path d="M22.3069 15.3222C22.3069 15.3222 27.6115 15.1535 30.9528 16.1628C34.2941 17.172 36.0575 18.5188 36.0575 18.5188L36.8429 16.9481C36.8429 16.9481 35.0792 14.9897 30.9528 13.8067C26.8264 12.6237 22.3073 13.0114 22.3073 13.0114L22.3081 8.32373L15.6387 14.168L22.3061 20.0099L22.3069 15.3222Z" fill="#C0C0C0"/>
<path d="M51.7732 43.0996C51.7732 43.0996 48.0392 43.2684 44.698 42.2591C41.3567 41.2498 40.3786 39.9031 40.3786 39.9031L39.1992 41.6854C39.1992 41.6854 40.5715 43.4321 44.6979 44.6151C48.8244 45.7981 51.7728 45.4105 51.7728 45.4105L51.772 50.0981L58.4414 44.2539L51.774 38.4119L51.7732 43.0996Z" fill="#C0C0C0"/>
<defs>
<radialGradient id="paint0_radial_9587_23998" cx="0" cy="0" r="1" gradientUnits="userSpaceOnUse" gradientTransform="translate(21.9216 39.4277) rotate(135) scale(35.9571 35.5315)">
<stop stop-color="white"/>
<stop offset="0.31" stop-color="#B3B3B3"/>
<stop offset="0.64" stop-color="#6A6A6A"/>
<stop offset="0.79" stop-color="#4D4D4D"/>
<stop offset="1" stop-color="#666666"/>
</radialGradient>
<linearGradient id="paint1_linear_9587_23998" x1="54.9058" y1="24.8006" x2="33.7472" y2="57.7061" gradientUnits="userSpaceOnUse">
<stop stop-color="#C0C0C0"/>
<stop offset="1" stop-color="#C0C0C0" stop-opacity="0"/>
</linearGradient>
</defs>
</svg>
