<svg width="64" height="64" viewBox="0 0 64 64" fill="none" xmlns="http://www.w3.org/2000/svg">
<path opacity="0.8" d="M33.2927 23.5406C27.4993 24.8574 22.3745 23.2804 22.3745 23.2804L22.4948 23.4007C17.6819 21.1812 12.4018 20 7 20V57H44C44 51.501 42.7759 46.1282 40.4785 41.246C40.3002 40.2148 39.4148 34.6628 40.2485 30.4962C40.6957 28.2609 42.6439 25.2993 44.3688 22.6772C46.2016 19.8908 47.7823 17.4879 47.0417 16.7473C46.3368 16.0424 44.41 17.3459 41.9461 19.0128C39.3857 20.745 36.2451 22.8696 33.2927 23.5406Z" fill="url(#paint0_linear_9587_23992)"/>
<path d="M35.3631 57H7V28.408C7.13132 28.4062 7.26275 28.4053 7.39427 28.4053C14.7956 28.4052 21.8956 31.3019 27.141 36.4617C32.3864 41.6214 35.3501 48.6241 35.3838 55.9377C35.3838 56.2926 35.3769 56.6467 35.3631 57Z" fill="url(#paint1_radial_9587_23992)"/>
<path d="M49.1902 36.0226V43.0519H51.5342V36.0226H56.222L50.3622 29.3213L44.5024 36.0226H49.1902Z" fill="#C0C0C0"/>
<path d="M28.0947 14.9346H21.063V12.5915H28.0947V7.90527L34.7983 13.763L28.0947 19.6208V14.9346Z" fill="#C0C0C0"/>
<defs>
<linearGradient id="paint0_linear_9587_23992" x1="58.7222" y1="25.2192" x2="19.1003" y2="64.626" gradientUnits="userSpaceOnUse">
<stop stop-color="#C0C0C0"/>
<stop offset="1" stop-color="#C0C0C0" stop-opacity="0"/>
</linearGradient>
<radialGradient id="paint1_radial_9587_23992" cx="0" cy="0" r="1" gradientUnits="userSpaceOnUse" gradientTransform="translate(21.9803 39.1476) rotate(135) scale(36.0989 35.6715)">
<stop stop-color="white"/>
<stop offset="0.31" stop-color="#B3B3B3"/>
<stop offset="0.64" stop-color="#6A6A6A"/>
<stop offset="0.79" stop-color="#4D4D4D"/>
<stop offset="1" stop-color="#666666"/>
</radialGradient>
</defs>
</svg>
