<svg width="64" height="64" viewBox="0 0 64 64" fill="none" xmlns="http://www.w3.org/2000/svg">
<path opacity="0.8" d="M7.41987 19.0023C7.2799 18.9828 7.13994 18.9631 7 18.9434C7 18.9434 7.0827 18.9625 7.2394 19.0008C7.15963 19.0003 7.07983 19 7 19V57H45C45 53.6289 44.5521 50.3039 43.6891 47.1047C43.94 45.1269 44.6144 43.2212 46.0276 41.808C49.3627 38.4729 51.9409 35.5005 51.9409 30.7699C51.9409 21.3087 40.1143 21.3087 35.3837 21.3087C28.8262 21.1386 22.2791 20.7096 15.7577 20.0228C13.0449 19.3802 10.2499 19.0335 7.41987 19.0023Z" fill="url(#paint0_linear_9587_23994)"/>
<path d="M35.3631 57H7V28.408C7.13132 28.4062 7.26275 28.4053 7.39427 28.4053C14.7956 28.4052 21.8956 31.3019 27.141 36.4617C32.3864 41.6214 35.3501 48.6241 35.3838 55.9377C35.3838 56.2926 35.3769 56.6467 35.3631 57Z" fill="url(#paint1_radial_9587_23994)"/>
<path d="M39.836 31.4473H25.7726L23.4287 29.1042H39.836V24.418L46.5396 30.2757L39.836 36.1335V31.4473Z" fill="#C0C0C0"/>
<defs>
<linearGradient id="paint0_linear_9587_23994" x1="64.7811" y1="27.0983" x2="28.0109" y2="70.5203" gradientUnits="userSpaceOnUse">
<stop stop-color="#C0C0C0"/>
<stop offset="1" stop-color="#C0C0C0" stop-opacity="0"/>
</linearGradient>
<radialGradient id="paint1_radial_9587_23994" cx="0" cy="0" r="1" gradientUnits="userSpaceOnUse" gradientTransform="translate(21.9803 39.1476) rotate(135) scale(36.0989 35.6715)">
<stop stop-color="white"/>
<stop offset="0.31" stop-color="#B3B3B3"/>
<stop offset="0.64" stop-color="#6A6A6A"/>
<stop offset="0.79" stop-color="#4D4D4D"/>
<stop offset="1" stop-color="#666666"/>
</radialGradient>
</defs>
</svg>
