<svg width="64" height="64" viewBox="0 0 64 64" fill="none" xmlns="http://www.w3.org/2000/svg">
<path d="M14.49 29.6655H10.5479L34.5952 56.1856C34.2009 54.3385 34.5952 51.4358 34.5952 48.665C34.5952 45.1026 39.3258 41.5402 39.3258 41.5402C39.3258 41.5402 32.6241 42.1735 31.0472 39.9569C29.0761 37.1862 32.6241 30.853 32.6241 30.853C32.6241 30.853 26.6245 34.7617 23.9513 33.2279C21.1917 31.6446 21.9802 24.124 21.9802 24.124C21.9802 24.124 18.4322 29.6655 14.49 29.6655Z" fill="url(#paint0_linear_9587_23990)"/>
<path d="M35.3705 57H7V28.5037C7.13132 28.5019 7.26275 28.501 7.39427 28.501C14.7956 28.5009 21.8956 31.4094 27.141 36.5901C32.3864 41.7709 35.3501 48.8021 35.3838 56.1454C35.3838 56.4308 35.3793 56.7157 35.3705 57Z" fill="url(#paint1_radial_9587_23990)"/>
<path d="M13.7181 20.5246H14.5097C14.982 20.5246 15.5954 20.383 16.3183 20.2162C18.0152 19.8246 20.3154 19.2937 22.8099 20.1279C24.5862 20.7219 25.5154 22.085 26.4106 23.398C26.9942 24.2541 27.5634 25.089 28.3434 25.6755C28.9952 26.1655 29.8148 26.3525 30.7054 26.5557C31.9753 26.8455 33.3896 27.1682 34.6674 28.4491C35.7139 29.4981 36.0543 30.7179 36.3995 31.9549C36.7061 33.0538 37.0166 34.1664 37.8294 35.1849C38.4885 36.0109 39.2959 36.4615 40.066 36.8913C41.1432 37.4926 42.1477 38.0532 42.5724 39.5434C43.1015 41.3998 42.9223 43.2854 42.746 45.1415C42.69 45.7308 42.6343 46.3171 42.6016 46.8985C43.5216 50.1567 44 53.5535 44 56.9998H7V19.9082C9.26939 19.9082 11.5173 20.1172 13.7181 20.5246Z" fill="url(#paint2_linear_9587_23990)"/>
<defs>
<linearGradient id="paint0_linear_9587_23990" x1="42.1697" y1="36.3945" x2="16.2498" y2="57.3385" gradientUnits="userSpaceOnUse">
<stop stop-color="#C0C0C0"/>
<stop offset="1" stop-color="#C0C0C0" stop-opacity="0"/>
</linearGradient>
<radialGradient id="paint1_radial_9587_23990" cx="0" cy="0" r="1" gradientUnits="userSpaceOnUse" gradientTransform="translate(21.9803 39.287) rotate(134.884) scale(36.1724 35.7439)">
<stop stop-color="white"/>
<stop offset="0.31" stop-color="#B3B3B3"/>
<stop offset="0.64" stop-color="#6A6A6A"/>
<stop offset="0.79" stop-color="#4D4D4D"/>
<stop offset="1" stop-color="#666666"/>
</radialGradient>
<linearGradient id="paint2_linear_9587_23990" x1="54.5714" y1="27.6814" x2="18.0202" y2="63.925" gradientUnits="userSpaceOnUse">
<stop stop-color="#C0C0C0"/>
<stop offset="1" stop-color="#C0C0C0" stop-opacity="0"/>
</linearGradient>
</defs>
</svg>
