<svg width="64" height="64" viewBox="0 0 64 64" fill="none" xmlns="http://www.w3.org/2000/svg">
<path opacity="0.5" d="M60.23 58H0.72998C10.09 58 15.6 43.43 15.6 36.37C15.6 29.31 18.91 21.54 29.83 21.54H31.12C40.94 21.54 45.35 29.09 45.35 36.37C45.35 43.65 49.76 58 60.23 58Z" fill="url(#paint0_linear_9609_25351)"/>
<path d="M0.72998 58C2.9895 57.796 5.10911 56.8174 6.72998 55.23C8.24741 53.7818 9.51455 52.0922 10.48 50.23C11.4501 48.4172 12.2342 46.5109 12.82 44.5401C13.4179 42.6173 13.8298 40.6415 14.05 38.64C14.0967 38.14 14.1267 37.6501 14.14 37.1701V35.64C14.1488 34.5444 14.2424 33.4511 14.42 32.37C14.7784 30.0991 15.6245 27.9328 16.9 26.02C17.6047 24.9967 18.4534 24.0806 19.42 23.3001C20.4526 22.4754 21.5975 21.802 22.82 21.3001C25.2743 20.385 27.8816 19.9504 30.5 20.02C31.07 20.02 31.77 20.02 32.42 20.09C33.0917 20.1196 33.7603 20.1998 34.42 20.33C35.7319 20.5626 37.011 20.9521 38.23 21.49C40.531 22.5506 42.5061 24.2081 43.95 26.2901C45.2397 28.1878 46.1091 30.3391 46.5 32.6C46.6027 33.1423 46.6762 33.6898 46.72 34.24C46.7816 34.7877 46.8083 35.3389 46.8 35.89C46.8 36.47 46.8 36.89 46.8 37.41C46.8 37.93 46.8 38.41 46.88 38.9C47.0527 40.9096 47.4143 42.8983 47.96 44.84C48.4785 46.819 49.2234 48.7317 50.18 50.5401C51.1313 52.4178 52.435 54.0948 54.02 55.48C55.7677 56.9603 57.9445 57.8402 60.23 57.99C59.021 58.0714 57.807 57.9463 56.64 57.62C55.4878 57.2853 54.3923 56.7797 53.39 56.12C51.5098 54.8137 49.903 53.1526 48.66 51.23C46.3163 47.5627 44.7821 43.4375 44.16 39.13C44.08 38.6 44.02 38.07 43.97 37.53C43.92 36.99 43.91 36.4 43.87 35.94C43.8482 35.4579 43.8014 34.9773 43.73 34.5C43.6775 34.0185 43.594 33.5407 43.48 33.07C43.0773 31.1671 42.2765 29.3712 41.13 27.8001C39.9774 26.2091 38.4346 24.9416 36.65 24.12C35.7119 23.7274 34.7323 23.4422 33.73 23.27C33.2145 23.1778 32.6933 23.1209 32.17 23.1C31.64 23.1 31.17 23.04 30.52 23.1C29.87 23.16 29.38 23.1 28.84 23.1H28.03L27.25 23.21L26.47 23.32L25.72 23.51C25.47 23.58 25.21 23.62 24.97 23.7L24.27 23.97C23.3549 24.3264 22.4934 24.8077 21.71 25.4C20.959 25.9994 20.287 26.6916 19.71 27.46C18.5828 29.0327 17.8085 30.8304 17.44 32.73C17.2467 33.6898 17.123 34.6624 17.07 35.64L16.97 37.21C16.9233 37.7633 16.8533 38.3033 16.76 38.83C16.0138 43.1143 14.3935 47.1991 12 50.83C10.766 52.746 9.21367 54.437 7.40997 55.83C6.45206 56.5395 5.39382 57.1024 4.27002 57.5C3.13407 57.8966 1.93132 58.0664 0.72998 58Z" fill="white"/>
<path d="M51 6C52.8565 6 54.637 6.73754 55.9498 8.05029C57.2625 9.36305 58 11.1435 58 13C58 14.8565 57.2625 16.637 55.9498 17.9497C54.637 19.2625 52.8565 20 51 20C49.1435 20 47.363 19.2625 46.0502 17.9497C44.7375 16.637 44 14.8565 44 13C44 11.1435 44.7375 9.36305 46.0502 8.05029C47.363 6.73754 49.1435 6 51 6ZM51 3C48.3478 3 45.8043 4.05359 43.929 5.92896C42.0536 7.80432 41 10.3478 41 13C41 15.6522 42.0536 18.1957 43.929 20.071C45.8043 21.9464 48.3478 23 51 23C53.6522 23 56.1957 21.9464 58.071 20.071C59.9464 18.1957 61 15.6522 61 13C61 10.3478 59.9464 7.80432 58.071 5.92896C56.1957 4.05359 53.6522 3 51 3Z" fill="url(#paint1_linear_9609_25351)" fill-opacity="0.6"/>
<defs>
<linearGradient id="paint0_linear_9609_25351" x1="30.48" y1="58" x2="30.48" y2="21.54" gradientUnits="userSpaceOnUse">
<stop stop-color="#F2F2F2"/>
<stop offset="1" stop-color="#4F4F4F"/>
</linearGradient>
<linearGradient id="paint1_linear_9609_25351" x1="51" y1="23" x2="51" y2="3" gradientUnits="userSpaceOnUse">
<stop stop-color="#989898"/>
<stop offset="1" stop-color="#F2F2F2"/>
</linearGradient>
</defs>
</svg>
