<svg width="64" height="64" viewBox="0 0 64 64" fill="none" xmlns="http://www.w3.org/2000/svg">
<path opacity="0.5" d="M60.25 59H0.75C28.85 45 21.13 23.48 21.13 23.48H39.87C39.87 23.48 32.15 45 60.25 59Z" fill="url(#paint0_linear_9609_25354)"/>
<path d="M0.75 59C4.12591 57.0496 7.29254 54.7576 10.2 52.16C12.937 49.7165 15.2603 46.846 17.08 43.66C18.7861 40.6399 19.8802 37.3132 20.3 33.87C20.5099 32.1883 20.5501 30.4898 20.42 28.8C20.35 27.96 20.23 27.12 20.09 26.29C19.9568 25.48 19.7629 24.681 19.51 23.9L18.89 22.05H21.13H30.5H39.87H42.11L41.49 23.9C41.2418 24.6824 41.0479 25.4809 40.91 26.29C40.77 27.12 40.66 27.96 40.59 28.8C40.4516 30.4893 40.4884 32.1883 40.7 33.87C41.1234 37.3106 42.221 40.634 43.93 43.65C45.7438 46.843 48.0678 49.7176 50.81 52.16C53.7146 54.7567 56.8778 57.0486 60.25 59C56.5187 57.4664 52.9945 55.4709 49.76 53.0601C48.1752 51.8848 46.6962 50.5731 45.34 49.14C43.99 47.753 42.7807 46.2356 41.73 44.61C39.655 41.4598 38.2619 37.9105 37.64 34.1899C37.347 32.3621 37.2331 30.51 37.3 28.66C37.3388 27.7287 37.4323 26.8004 37.58 25.88C37.7268 24.9244 37.9475 23.9816 38.24 23.0601L39.87 24.92H30.5H21.13L22.76 23.0601C23.0479 23.9829 23.2684 24.9253 23.42 25.88C23.5644 26.8006 23.6546 27.7289 23.69 28.66C23.7666 30.5101 23.6526 32.3631 23.35 34.1899C22.7326 37.9101 21.3428 41.4597 19.27 44.61C18.2129 46.231 17.0041 47.7478 15.66 49.14C14.99 49.85 14.26 50.52 13.55 51.14C12.84 51.76 12.05 52.43 11.23 53.01C8.00298 55.4403 4.48176 57.4529 0.75 59V59Z" fill="white"/>
<path d="M51 6C52.8565 6 54.637 6.73754 55.9498 8.05029C57.2625 9.36305 58 11.1435 58 13C58 14.8565 57.2625 16.637 55.9498 17.9497C54.637 19.2625 52.8565 20 51 20C49.1435 20 47.363 19.2625 46.0502 17.9497C44.7375 16.637 44 14.8565 44 13C44 11.1435 44.7375 9.36305 46.0502 8.05029C47.363 6.73754 49.1435 6 51 6ZM51 3C48.3478 3 45.8043 4.05359 43.929 5.92896C42.0536 7.80432 41 10.3478 41 13C41 15.6522 42.0536 18.1957 43.929 20.071C45.8043 21.9464 48.3478 23 51 23C53.6522 23 56.1957 21.9464 58.071 20.071C59.9464 18.1957 61 15.6522 61 13C61 10.3478 59.9464 7.80432 58.071 5.92896C56.1957 4.05359 53.6522 3 51 3Z" fill="url(#paint1_linear_9609_25354)" fill-opacity="0.6"/>
<defs>
<linearGradient id="paint0_linear_9609_25354" x1="30.5" y1="59" x2="30.5" y2="23.48" gradientUnits="userSpaceOnUse">
<stop stop-color="#F2F2F2"/>
<stop offset="1" stop-color="#4F4F4F"/>
</linearGradient>
<linearGradient id="paint1_linear_9609_25354" x1="51" y1="23" x2="51" y2="3" gradientUnits="userSpaceOnUse">
<stop stop-color="#989898"/>
<stop offset="1" stop-color="#F2F2F2"/>
</linearGradient>
</defs>
</svg>
