<svg width="64" height="64" viewBox="0 0 64 64" fill="none" xmlns="http://www.w3.org/2000/svg">
<path opacity="0.5" d="M59 59H2L7.65997 40.09C10.25 31.46 19.53 25.4 30.19 25.4H30.81C41.47 25.4 50.75 31.46 53.34 40.09L59 59Z" fill="url(#paint0_linear_9609_25348)"/>
<path d="M2 59C2.74 55.25 3.63001 51.5301 4.51001 47.8101L5.89001 42.24C6.13001 41.31 6.34 40.3999 6.63 39.4499C6.79 38.9699 6.91999 38.45 7.10999 38.01L7.71997 36.59C9.72164 32.6845 12.8594 29.477 16.72 27.39C20.956 25.1215 25.695 23.9557 30.5 24C35.2949 23.9607 40.0229 25.1264 44.25 27.39C48.1117 29.4755 51.2499 32.6834 53.25 36.59L53.86 38C54.04 38.48 54.17 38.9999 54.33 39.4499C54.63 40.4499 54.84 41.3 55.08 42.24L56.46 47.8101C57.33 51.5301 58.22 55.25 58.96 59C57.5 55.4 56.18 51.77 54.86 48.14L52.94 42.6801C52.61 41.7901 52.33 40.84 52 39.98C51.82 39.55 51.68 39.1199 51.48 38.6999L50.85 37.47C48.8679 34.1079 45.9677 31.3812 42.49 29.61C38.7812 27.7027 34.66 26.7378 30.49 26.8C26.32 26.7378 22.1988 27.7027 18.49 29.61C15.013 31.3776 12.1127 34.1009 10.13 37.46L9.5 38.6999C9.3 39.1199 9.14998 39.55 8.97998 39.97C8.64998 40.84 8.35998 41.7901 7.97998 42.6801L6.06 48.14C4.77 51.77 3.46 55.4 2 59Z" fill="white"/>
<path d="M58 7V17H48V7H58ZM61 4H45V20H61V4Z" fill="url(#paint1_linear_9609_25348)" fill-opacity="0.6"/>
<defs>
<linearGradient id="paint0_linear_9609_25348" x1="30.5" y1="59" x2="30.5" y2="25.4" gradientUnits="userSpaceOnUse">
<stop stop-color="#F2F2F2"/>
<stop offset="1" stop-color="#4F4F4F"/>
</linearGradient>
<linearGradient id="paint1_linear_9609_25348" x1="53" y1="20" x2="53" y2="4" gradientUnits="userSpaceOnUse">
<stop stop-color="#989898"/>
<stop offset="1" stop-color="#F2F2F2"/>
</linearGradient>
</defs>
</svg>
